Coordinates
version=1
nRows=18
nColumns=22
inDegrees=yes

Units are S.I. units (second, meters, Newtons, ...)
If the header above contains a line with 'inDegrees', this indicates whether rotational values are in degrees (yes) or radians (no).

endheader
time	pelvis_tilt	pelvis_list	pelvis_rotation	pelvis_tx	pelvis_ty	pelvis_tz	hip_flexion_r	hip_adduction_r	hip_rotation_r	knee_angle_r	ankle_angle_r	subtalar_angle_r	hip_flexion_l	hip_adduction_l	hip_rotation_l	knee_angle_l	ankle_angle_l	subtalar_angle_l	lumbar_extension	lumbar_bending	lumbar_rotation
      2.61000000	      3.28337696	     -4.31000163	     -1.82631480	     -0.21622275	      0.89357268	     -0.25659939	     -3.97493928	      7.96995065	     -3.59875407	    -16.24213535	     20.93305153	    -10.18785669	     28.38067561	     -4.95941033	      1.66373224	    -62.72460751	      5.96836664	     -2.85702944	    -13.93376325	      2.11725984	      3.20960424
      2.62000000	      3.29608177	     -4.16588674	     -2.09243186	     -0.20782874	      0.89314578	     -0.25571958	     -4.80006817	      7.81082669	     -3.51710177	    -15.88548554	     21.21364869	    -10.16610101	     29.15314955	     -5.06090524	      1.29312720	    -60.51936232	      6.37816595	     -3.01224977	    -13.88753633	      1.88000781	      3.54701058
      2.63000000	      3.31700481	     -4.04309788	     -2.36435901	     -0.19940712	      0.89259790	     -0.25487323	     -5.63424810	      7.67163850	     -3.43278206	    -15.53011479	     21.50158100	    -10.18080869	     29.78498902	     -5.20193061	      0.90421475	    -58.09948562	      6.67292246	     -3.15578244	    -13.85459722	      1.67196114	      3.86167987
      2.64000000	      3.31956566	     -3.94532060	     -2.64654650	     -0.19094948	      0.89187353	     -0.25403759	     -6.43192949	      7.55533437	     -3.36006672	    -15.21197400	     21.80928895	    -10.22836084	     30.31253063	     -5.38656031	      0.49938783	    -55.49563051	      6.91397170	     -3.22898177	    -13.79957709	      1.49486524	      4.15026842
      2.65000000	      3.31058009	     -3.86472366	     -2.94689159	     -0.18244119	      0.89099961	     -0.25321313	     -7.19780034	      7.44976714	     -3.28158353	    -14.93792385	     22.13471035	    -10.30208057	     30.72585006	     -5.60503972	      0.06676847	    -52.72626135	      7.10084108	     -3.21456971	    -13.73188353	      1.34010756	      4.41902298
      2.66000000	      3.28499831	     -3.79953846	     -3.26650286	     -0.17387524	      0.88998209	     -0.25241378	     -7.92414474	      7.35155076	     -3.18935063	    -14.71346686	     22.47244447	    -10.38584448	     31.03516327	     -5.84836526	     -0.39087219	    -49.81588202	      7.23037314	     -3.10663976	    -13.64575649	      1.20901368	      4.66716160
      2.67000000	      3.26148991	     -3.74610800	     -3.60986147	     -0.16523712	      0.88886636	     -0.25164591	     -8.63554298	      7.25141504	     -3.07463495	    -14.53128747	     22.81924333	    -10.47628848	     31.22522831	     -6.11407892	     -0.89074243	    -46.79463220	      7.28538909	     -2.90059499	    -13.56357754	      1.09708812	      4.90324153
      2.68000000	      3.21426547	     -3.69968260	     -3.97843028	     -0.15653053	      0.88762130	     -0.25091164	     -9.29071228	      7.14467527	     -2.92308724	    -14.41657177	     23.17259767	    -10.54000848	     31.33453955	     -6.39132792	     -1.42542513	    -43.69793842	      7.28688361	     -2.63328579	    -13.45490359	      1.00180684	      5.13154224
      2.69000000	      3.21183884	     -3.66462382	     -4.36040613	     -0.14773032	      0.88638157	     -0.25022756	     -9.99662194	      7.03325691	     -2.69604824	    -14.30954582	     23.50220876	    -10.60864095	     31.29125957	     -6.67516670	     -1.99567397	    -40.55250543	      7.21083667	     -2.19930339	    -13.40298680	      0.92404582	      5.32356050
      2.70000000	      3.17192249	     -3.62354552	     -4.80043069	     -0.13886574	      0.88501345	     -0.24954165	    -10.60159603	      6.88874021	     -2.41232378	    -14.32414040	     23.85635152	    -10.61231758	     31.20272373	     -6.97759944	     -2.66341383	    -37.42016559	      7.10044892	     -1.81218931	    -13.30932575	      0.84138248	      5.56168207
      2.71000000	      3.13738339	     -3.57697575	     -5.27772951	     -0.12989360	      0.88360566	     -0.24887692	    -11.18671075	      6.71250710	     -2.06142260	    -14.39659924	     24.19611009	    -10.58230292	     31.03337971	     -7.28660714	     -3.42839927	    -34.34330765	      6.95475373	     -1.40832204	    -13.21866842	      0.75389059	      5.81705963
      2.72000000	      3.10645365	     -3.52700259	     -5.80743488	     -0.12085166	      0.88216517	     -0.24822424	    -11.72670805	      6.50313531	     -1.61359960	    -14.56747170	     24.54117007	    -10.52045446	     30.80175403	     -7.60426183	     -4.29173115	    -31.37689201	      6.78717144	     -1.05318437	    -13.13531460	      0.66291857	      6.11552999
      2.73000000	      3.09197846	     -3.46760592	     -6.37864129	     -0.11172897	      0.88072698	     -0.24760309	    -12.23072565	      6.25377103	     -1.09169596	    -14.84286086	     24.86311975	    -10.44270341	     30.51060148	     -7.91680042	     -5.25302049	    -28.57349590	      6.61960618	     -0.69951035	    -13.07178805	      0.56237296	      6.43271493
      2.74000000	      3.08327935	     -3.38939438	     -6.98318204	     -0.10248963	      0.87928803	     -0.24702393	    -12.70208425	      5.95765712	     -0.51003455	    -15.19295952	     25.15455345	    -10.35614080	     30.18770712	     -8.20499727	     -6.28323061	    -25.98506464	      6.48743338	     -0.35363276	    -13.00560138	      0.44095218	      6.78035699
      2.75000000	      3.08694449	     -3.29359252	     -7.61305735	     -0.09313957	      0.87787247	     -0.24652682	    -13.13520323	      5.61650384	      0.11674966	    -15.63756307	     25.41435252	    -10.26599732	     29.84192991	     -8.45953454	     -7.34552138	    -23.65922867	      6.41872820	     -0.01166474	    -12.94713007	      0.30713440	      7.14530311
      2.76000000	      3.09636665	     -3.17819366	     -8.25101804	     -0.08365153	      0.87648264	     -0.24611258	    -13.53242507	      5.23751366	      0.76097338	    -16.15948349	     25.63277492	    -10.17173379	     29.49394053	     -8.66996951	     -8.37940857	    -21.63466572	      6.42642624	      0.33710711	    -12.88220333	      0.15425257	      7.51947453
      2.77000000	      3.10628142	     -3.04846740	     -8.88418906	     -0.07400527	      0.87512528	     -0.24581546	    -13.89237880	      4.83075195	      1.39915674	    -16.75092256	     25.80499562	    -10.06752149	     29.16158318	     -8.83572736	     -9.32604008	    -19.94860753	      6.50822536	      0.67276315	    -12.80333447	     -0.00329236	      7.89581629
      2.78000000	      3.11259447	     -2.90302157	     -9.49433303	     -0.06415802	      0.87380523	     -0.24564056	    -14.22781815	      4.40282495	      2.00162218	    -17.38510051	     25.91893210	     -9.94108440	     28.85680343	     -8.95321370	    -10.13531450	    -18.62308924	      6.64158729	      0.99993640	    -12.69888036	     -0.16631939	      8.25519851
